<svg width="256" height="256" viewBox="0 0 256 256" fill="none" xmlns="http://www.w3.org/2000/svg">
    <g clip-path="url(#clip0_111_3)">
        <path fill-rule="evenodd" clip-rule="evenodd" d="M128 110.077L229.167 42H256V256H229.167V75.5547L128 143.632L27.5985 75.5547V256H0V42H26.9559L128 110.077Z" fill="url(#paint0_linear_111_3)"/>
        <path fill-rule="evenodd" clip-rule="evenodd" d="M128.171 181.931L215.816 128.179L216 160.037L141.268 205.847V256H115.206V205.937L40 159.829L40.2108 128L128.171 181.931Z" fill="url(#paint1_linear_111_3)"/>
        <path d="M112.474 28.6663L0 28.3141V0H256V28.3141H143.909V77.864L128.461 86L112.474 78.216V28.6663Z" fill="url(#paint2_linear_111_3)"/>
    </g>
    <defs>
        <linearGradient id="paint0_linear_111_3" x1="128" y1="102.842" x2="128" y2="256" gradientUnits="userSpaceOnUse">
            <stop stop-color="white"/>
            <stop offset="1" stop-color="#5F5F5E"/>
        </linearGradient>
        <linearGradient id="paint1_linear_111_3" x1="128" y1="130.246" x2="128" y2="256" gradientUnits="userSpaceOnUse">
            <stop stop-color="#55545F"/>
            <stop offset="1" stop-color="white"/>
        </linearGradient>
        <linearGradient id="paint2_linear_111_3" x1="128.006" y1="86" x2="128.006" y2="-0.284766" gradientUnits="userSpaceOnUse">
            <stop stop-color="#1F1F1D"/>
            <stop offset="0.447917" stop-color="#898888"/>
            <stop offset="0.760417" stop-color="#E2E2E2"/>
            <stop offset="1" stop-color="white"/>
        </linearGradient>
        <clipPath id="clip0_111_3">
            <rect width="256" height="256" fill="white"/>
        </clipPath>
    </defs>
</svg>
